<svg width="128" height="128" viewBox="0 0 128 128" fill="none" xmlns="http://www.w3.org/2000/svg">
<g clip-path="url(#clip0_105_38)">
<path d="M8.64 0C1.5808 0 0 5.80876 0 12.9515V90.6607C0 97.8035 5.7408 103.612 12.8 103.612H32V128L72.1728 103.612H115.2C122.259 103.612 128 97.8035 128 90.6607V71.2334H115.2V90.6607H68.6272L44.8 105.128V90.6607H12.8V12.9515H57.6V0H8.64Z" fill="#27D4DC"/>
<path d="M70.2708 0V12.9784C82.2628 12.9876 93.5427 17.7099 102.02 26.2872C110.497 34.8645 115.164 46.2779 115.173 58.4119H127.999C127.995 42.8039 121.99 28.1367 111.091 17.1087C100.192 6.08075 85.6962 0.00458865 70.2708 0Z" fill="#27D4DC"/>
<path d="M70.2662 25.9613L70.2753 38.9489C75.4096 38.9397 80.2399 40.9635 83.8774 44.6441C87.5149 48.3247 89.5151 53.2122 89.506 58.4073L102.342 58.4164C102.342 49.7519 99.0125 41.6014 92.9485 35.4656C86.8845 29.3298 78.8294 25.9613 70.2662 25.9613Z" fill="#27D4DC"/>
<ellipse cx="69.9733" cy="57.8502" rx="6.4" ry="6.47577" fill="#27D4DC"/>
</g>
<defs>
<clipPath id="clip0_105_38">
<rect width="128" height="128" fill="white"/>
</clipPath>
</defs>
</svg>
